<svg xmlns="http://www.w3.org/2000/svg" viewBox="0 0 24 24" fill="currentColor">
  <path d="M7 18c-1.104 0-2 .896-2 2s.896 2 2 2 2-.896 2-2-.896-2-2-2zm0 2.5c-.276 0-.5-.224-.5-.5s.224-.5.5-.5.5.224.5.5-.224.5-.5.5zm10-2.5c-1.104 0-2 .896-2 2s.896 2 2 2 2-.896 2-2-.896-2-2-2zm0 2.5c-.276 0-.5-.224-.5-.5s.224-.5.5-.5.5.224.5.5-.224.5-.5.5zM6.293 6.293l1.414 1.414L5.414 10H19a1 1 0 0 1 .98 1.197l-1.5 8A1 1 0 0 1 17.5 20H7a1 1 0 0 1-1-1v-1H4a1 1 0 0 1-1-1V8a1 1 0 0 1 1-1h1.293zM6 8v8h10.5l1.25-6.5H6.707l1.586-1.586L6.293 6.293z"/>
</svg>